<svg xmlns="http://www.w3.org/2000/svg" version="1.1" viewBox="0 0 32 32">
    <path d="M1.685 18.059c0 0.917 0.224 1.781 0.683 2.571 0.448 0.789 1.067 1.429 1.856 1.909 0.779 0.48 1.643 0.736 2.56 0.757 0.117 0 0.181-0.064 0.181-0.181v-1.419c0-0.128-0.064-0.203-0.181-0.203-0.907-0.043-1.685-0.405-2.325-1.088s-0.96-1.461-0.96-2.357c0-0.875 0.299-1.643 0.907-2.304 0.608-0.651 1.344-1.035 2.24-1.141l0.565-0.064c0.128 0 0.192-0.064 0.192-0.203l0.085-0.544c0.117-1.163 0.597-2.133 1.451-2.912s1.867-1.163 3.040-1.163c1.163 0 2.176 0.384 3.040 1.163 0.875 0.779 1.365 1.739 1.472 2.88l0.075 0.619c0 0.117 0.064 0.181 0.181 0.181h1.717c0.96 0 1.781 0.341 2.464 1.024s1.024 1.493 1.024 2.443c0 0.896-0.32 1.675-0.96 2.357-0.64 0.672-1.419 1.035-2.315 1.088-0.128 0-0.203 0.064-0.203 0.203v1.419c0 0.117 0.064 0.181 0.203 0.181 1.419-0.043 2.613-0.576 3.605-1.6s1.483-2.229 1.483-3.637c0-0.811-0.149-1.525-0.459-2.165 0.8-0.992 1.227-2.165 1.227-3.499 0-1.003-0.245-1.931-0.747-2.784s-1.184-1.536-2.037-2.037-1.792-0.747-2.795-0.747c-1.643 0-3.019 0.619-4.128 1.845-0.864-0.469-1.824-0.704-2.869-0.704-1.504 0-2.827 0.469-3.989 1.397s-1.899 2.123-2.229 3.563c-1.195 0.299-2.165 0.917-2.923 1.867-0.757 0.96-1.131 2.048-1.131 3.285zM7.531 26.251c0 0.224 0.085 0.427 0.256 0.608 0.192 0.171 0.395 0.256 0.619 0.256 0.256 0 0.459-0.085 0.629-0.245 0.171-0.171 0.245-0.373 0.245-0.619 0-0.256-0.085-0.459-0.256-0.629s-0.373-0.245-0.629-0.245-0.459 0.085-0.629 0.245c-0.149 0.16-0.235 0.373-0.235 0.629zM8.448 22.379c0 0.256 0.085 0.469 0.256 0.651s0.373 0.267 0.629 0.267c0.245 0 0.459-0.085 0.629-0.267s0.256-0.395 0.256-0.651c0-0.245-0.085-0.448-0.256-0.619s-0.373-0.256-0.629-0.256c-0.245 0-0.459 0.085-0.629 0.256s-0.256 0.384-0.256 0.619zM10.475 28.331c0 0.235 0.085 0.437 0.256 0.608 0.181 0.181 0.384 0.267 0.619 0.267 0.256 0 0.469-0.085 0.64-0.245 0.181-0.171 0.267-0.373 0.267-0.629s-0.085-0.469-0.267-0.64c-0.181-0.181-0.395-0.267-0.64-0.267-0.235 0-0.437 0.085-0.619 0.267-0.171 0.181-0.256 0.395-0.256 0.64zM10.635 4.992c0 0.256 0.085 0.469 0.256 0.629l0.704 0.704c0.171 0.171 0.363 0.267 0.565 0.267 0.224 0.032 0.437-0.043 0.651-0.235s0.32-0.416 0.32-0.672c0-0.256-0.085-0.491-0.256-0.683l-0.683-0.651c-0.16-0.181-0.363-0.267-0.619-0.267-0.267 0-0.491 0.085-0.672 0.267-0.181 0.171-0.267 0.384-0.267 0.64zM11.381 24.427c0 0.235 0.085 0.448 0.267 0.64 0.171 0.171 0.373 0.256 0.608 0.256 0.256 0 0.469-0.085 0.651-0.256s0.267-0.384 0.267-0.64c0-0.245-0.085-0.459-0.267-0.64s-0.395-0.267-0.651-0.267c-0.235 0-0.448 0.085-0.619 0.267s-0.256 0.395-0.256 0.64zM11.84 20.587c0 0.245 0.085 0.448 0.256 0.619s0.384 0.256 0.619 0.256c0.256 0 0.469-0.085 0.64-0.256 0.181-0.171 0.267-0.373 0.267-0.629 0-0.245-0.085-0.459-0.267-0.629s-0.395-0.256-0.64-0.256c-0.245 0-0.448 0.085-0.619 0.256s-0.256 0.395-0.256 0.64zM14.368 26.251c0 0.224 0.085 0.427 0.245 0.608 0.181 0.171 0.405 0.256 0.64 0.256 0.256 0 0.459-0.085 0.629-0.245 0.171-0.171 0.245-0.373 0.245-0.619 0-0.256-0.085-0.459-0.245-0.629-0.171-0.171-0.373-0.245-0.629-0.245s-0.469 0.085-0.64 0.256-0.245 0.373-0.245 0.619zM15.275 22.379c0 0.256 0.085 0.469 0.256 0.651s0.384 0.267 0.629 0.267 0.459-0.085 0.629-0.267c0.171-0.181 0.256-0.395 0.256-0.651 0-0.245-0.085-0.448-0.256-0.619s-0.373-0.256-0.629-0.256-0.459 0.085-0.629 0.256-0.256 0.384-0.256 0.619zM16.32 9.664c0.736-0.704 1.611-1.056 2.635-1.056 1.035 0 1.92 0.373 2.645 1.109 0.736 0.736 1.099 1.632 1.099 2.656 0 0.661-0.181 1.323-0.544 1.963-1.013-1.024-2.251-1.536-3.701-1.536h-0.341c-0.32-1.248-0.917-2.293-1.792-3.136zM18.027 4.096c0 0.245 0.085 0.459 0.267 0.619s0.395 0.245 0.651 0.245 0.459-0.085 0.629-0.245c0.171-0.171 0.245-0.373 0.245-0.619v-2.176c0-0.256-0.085-0.469-0.256-0.651s-0.363-0.267-0.608-0.267-0.459 0.096-0.64 0.277c-0.181 0.181-0.277 0.395-0.277 0.64v2.176zM23.915 6.517c0 0.245 0.085 0.459 0.267 0.629 0.16 0.171 0.363 0.256 0.597 0.277s0.459-0.075 0.661-0.277l1.525-1.525c0.192-0.192 0.277-0.405 0.277-0.651 0-0.256-0.096-0.469-0.277-0.651s-0.395-0.267-0.64-0.267c-0.235 0-0.437 0.085-0.619 0.267l-1.525 1.557c-0.181 0.171-0.267 0.384-0.267 0.64zM24.768 19.104c0 0.267 0.085 0.491 0.256 0.661l0.683 0.672c0.256 0.171 0.491 0.256 0.683 0.256 0.224 0 0.416-0.096 0.597-0.277s0.267-0.405 0.267-0.651c0-0.245-0.096-0.448-0.277-0.619l-0.661-0.693c-0.192-0.171-0.405-0.256-0.651-0.256s-0.459 0.085-0.629 0.267c-0.181 0.171-0.267 0.384-0.267 0.64zM26.315 12.373c0 0.256 0.096 0.459 0.277 0.629 0.181 0.192 0.405 0.288 0.661 0.288h2.155c0.245 0 0.459-0.085 0.64-0.267s0.267-0.395 0.267-0.651c0-0.256-0.085-0.469-0.267-0.64s-0.395-0.267-0.64-0.267h-2.155c-0.256 0-0.469 0.085-0.661 0.267s-0.277 0.395-0.277 0.64z"/>
</svg>
