<svg xmlns="http://www.w3.org/2000/svg" version="1.1" viewBox="0 0 32 32">
    <path d="M4.213 13.92c0-0.992 0.309-1.867 0.928-2.645s1.397-1.28 2.336-1.493c0.277-1.173 0.875-2.133 1.813-2.891s2.005-1.131 3.211-1.131c1.173 0 2.219 0.373 3.147 1.109s1.525 1.675 1.792 2.827h0.277c1.173 0 2.176 0.416 3.008 1.237s1.248 1.824 1.248 2.997c0 0.011 0 0.021 0 0.043s0 0.043 0 0.064c0.8 0.853 1.195 1.867 1.195 3.040 0 0.811-0.203 1.557-0.608 2.24-0.405 0.693-0.949 1.237-1.632 1.632-0.683 0.405-1.429 0.597-2.229 0.597-1.024 0-1.941-0.32-2.731-0.949s-1.323-1.44-1.579-2.411h-6.080c-1.141-0.053-2.112-0.491-2.901-1.312s-1.195-1.813-1.195-2.955zM5.664 13.92c0 0.747 0.256 1.397 0.779 1.941s1.141 0.843 1.867 0.875h9.589c0.725-0.032 1.355-0.32 1.867-0.875 0.523-0.555 0.779-1.195 0.779-1.941 0-0.757-0.277-1.408-0.843-1.952-0.565-0.555-1.216-0.821-1.984-0.821h-1.376c-0.096 0-0.149-0.053-0.149-0.149l-0.075-0.501c-0.096-0.928-0.491-1.707-1.195-2.336s-1.515-0.949-2.432-0.949c-0.949 0-1.771 0.309-2.464 0.939s-1.067 1.408-1.163 2.336l-0.064 0.501c0 0.096-0.053 0.149-0.171 0.149h-0.427c-0.715 0.085-1.323 0.384-1.803 0.917-0.491 0.523-0.736 1.152-0.736 1.867zM12.277 23.531c-0.267-0.352-0.267-0.693 0-1.045l1.205-1.227c0.149-0.128 0.331-0.192 0.555-0.192 0.203 0 0.363 0.064 0.491 0.192s0.192 0.299 0.192 0.501c0 0.213-0.064 0.384-0.192 0.512l-1.216 1.259c-0.128 0.128-0.309 0.203-0.523 0.203s-0.384-0.075-0.512-0.203zM15.893 18.176c0.224 0.576 0.597 1.035 1.109 1.387s1.077 0.533 1.707 0.533c0.821 0 1.525-0.299 2.101-0.885 0.576-0.597 0.864-1.312 0.864-2.155 0-0.416-0.064-0.789-0.203-1.12-0.352 0.651-0.853 1.184-1.483 1.589-0.64 0.405-1.333 0.619-2.091 0.651h-2.005zM17.973 23.712c0-0.203 0.075-0.363 0.213-0.501 0.139-0.128 0.32-0.203 0.512-0.203s0.373 0.075 0.533 0.224c0.128 0.128 0.203 0.288 0.203 0.48v1.749c0 0.203-0.075 0.373-0.213 0.523s-0.32 0.224-0.512 0.224-0.373-0.075-0.512-0.224c-0.139-0.149-0.213-0.32-0.213-0.523v-1.749zM22.677 21.76c0-0.192 0.064-0.352 0.203-0.491 0.139-0.128 0.309-0.203 0.501-0.203 0.203 0 0.373 0.064 0.501 0.192l1.259 1.227c0.139 0.149 0.213 0.32 0.213 0.512 0 0.203-0.075 0.373-0.213 0.512s-0.32 0.213-0.523 0.213c-0.224 0-0.395-0.064-0.533-0.203l-1.205-1.259c-0.139-0.149-0.203-0.32-0.203-0.501zM22.677 12.363c0-0.203 0.064-0.373 0.203-0.501l1.205-1.259c0.149-0.128 0.32-0.203 0.533-0.203 0.203 0 0.373 0.064 0.533 0.203 0.139 0.16 0.213 0.341 0.213 0.544 0 0.192-0.075 0.352-0.213 0.512l-1.259 1.227c-0.128 0.128-0.299 0.203-0.501 0.203s-0.373-0.064-0.501-0.203c-0.149-0.149-0.213-0.32-0.213-0.523zM24.619 17.056c0-0.203 0.064-0.373 0.203-0.512 0.128-0.139 0.299-0.213 0.501-0.213h1.728c0.203 0 0.384 0.075 0.533 0.213s0.224 0.309 0.224 0.512c0 0.203-0.075 0.384-0.224 0.523s-0.32 0.213-0.533 0.213h-1.728c-0.203 0-0.363-0.075-0.501-0.213s-0.203-0.309-0.203-0.523z"/>
</svg>
