<svg xmlns="http://www.w3.org/2000/svg" version="1.1" viewBox="0 0 32 32">
    <path d="M4.949 18.037c0-1.227 0.384-2.315 1.152-3.275s1.739-1.568 2.912-1.845c0.331-1.451 1.077-2.645 2.24-3.573s2.507-1.397 4.011-1.397c1.472 0 2.773 0.459 3.925 1.355 1.141 0.907 1.899 2.069 2.251 3.499h0.331c0.949 0 1.835 0.235 2.645 0.693s1.461 1.099 1.931 1.899c0.469 0.8 0.715 1.685 0.715 2.635 0 1.429-0.491 2.656-1.472 3.68s-2.187 1.568-3.605 1.611c-0.139 0-0.213-0.064-0.213-0.181v-1.419c0-0.128 0.075-0.192 0.213-0.192 0.917-0.043 1.685-0.405 2.325-1.088s0.96-1.483 0.96-2.411-0.341-1.728-1.045-2.411c-0.693-0.683-1.515-1.024-2.464-1.024h-1.707c-0.128 0-0.203-0.064-0.203-0.181l-0.075-0.619c-0.117-1.141-0.608-2.112-1.472-2.891-0.875-0.779-1.888-1.173-3.040-1.173-1.163 0-2.187 0.384-3.051 1.163s-1.355 1.739-1.472 2.891l-0.064 0.576c0 0.128-0.075 0.192-0.213 0.192l-0.565 0.032c-0.875 0.043-1.611 0.395-2.229 1.067s-0.917 1.461-0.917 2.368c0 0.928 0.32 1.728 0.96 2.411s1.419 1.045 2.325 1.088c0.117 0 0.181 0.064 0.181 0.192v1.419c0 0.117-0.064 0.181-0.181 0.181-1.429-0.064-2.635-0.608-3.627-1.632s-1.461-2.219-1.461-3.637zM11.275 18.976c0-0.256 0.128-0.608 0.395-1.056 0.256-0.448 0.501-0.8 0.725-1.077 0.224-0.256 0.363-0.405 0.405-0.448l0.384 0.427c0.277 0.299 0.533 0.651 0.768 1.088 0.235 0.427 0.352 0.789 0.352 1.067 0 0.416-0.139 0.768-0.427 1.045s-0.64 0.416-1.067 0.416c-0.416 0-0.779-0.139-1.077-0.427-0.309-0.277-0.459-0.629-0.459-1.035zM14.453 23.232c0-0.299 0.085-0.629 0.256-1.024s0.373-0.747 0.629-1.088c0.192-0.277 0.427-0.576 0.715-0.896 0.277-0.32 0.491-0.555 0.64-0.693 0.075-0.064 0.16-0.149 0.256-0.245l0.256 0.245c0.405 0.352 0.853 0.875 1.355 1.557 0.256 0.352 0.459 0.725 0.629 1.109s0.245 0.725 0.245 1.035c0 0.683-0.245 1.269-0.725 1.76s-1.077 0.725-1.771 0.725c-0.683 0-1.269-0.245-1.76-0.715-0.491-0.491-0.725-1.077-0.725-1.771zM16.021 16.128c0-0.448 0.341-1.013 1.035-1.707l0.256 0.267c0.192 0.224 0.352 0.48 0.512 0.757 0.149 0.277 0.235 0.501 0.235 0.683 0 0.277-0.096 0.512-0.299 0.704-0.192 0.192-0.427 0.299-0.704 0.299-0.288 0-0.533-0.096-0.736-0.299-0.203-0.192-0.299-0.427-0.299-0.704z"/>
</svg>
