<svg xmlns="http://www.w3.org/2000/svg" version="1.1" viewBox="0 0 32 32">
    <path d="M4.939 18.037c0 1.184 0.352 2.24 1.056 3.168s1.611 1.568 2.731 1.909l-0.693 1.792c-0.032 0.149 0.021 0.235 0.149 0.235h2.272l-1.109 4.032h0.299l4.235-5.568c0.043-0.043 0.043-0.096 0.021-0.149s-0.075-0.075-0.149-0.075h-2.325l2.645-4.949c0.064-0.149 0.021-0.224-0.149-0.224h-3.136c-0.096 0-0.181 0.053-0.235 0.149l-1.163 3.061c-0.757-0.192-1.387-0.608-1.888-1.237s-0.747-1.344-0.747-2.144c0-0.885 0.299-1.653 0.896-2.304s1.344-1.024 2.24-1.131l0.555-0.075c0.139 0 0.213-0.064 0.213-0.181l0.075-0.555c0.107-1.152 0.587-2.123 1.451-2.901s1.877-1.173 3.040-1.173c1.163 0 2.176 0.395 3.040 1.173 0.875 0.779 1.365 1.749 1.493 2.901l0.064 0.619c0 0.128 0.064 0.192 0.203 0.192h1.717c0.971 0 1.792 0.341 2.475 1.013s1.024 1.483 1.024 2.432c0 0.907-0.32 1.696-0.949 2.357s-1.408 1.024-2.336 1.099c-0.139 0-0.213 0.064-0.213 0.203v1.461c0 0.117 0.075 0.181 0.213 0.181 0.693-0.021 1.355-0.181 1.984-0.469s1.173-0.672 1.621-1.141c0.448-0.469 0.811-1.024 1.077-1.675 0.267-0.64 0.405-1.312 0.405-2.005 0-0.96-0.235-1.845-0.715-2.656s-1.12-1.451-1.931-1.92c-0.811-0.469-1.696-0.704-2.645-0.704h-0.341c-0.352-1.419-1.099-2.581-2.251-3.477s-2.453-1.355-3.925-1.355c-1.504 0-2.848 0.469-4.011 1.397s-1.909 2.123-2.24 3.584c-1.173 0.277-2.144 0.885-2.912 1.845s-1.131 2.037-1.131 3.264zM13.643 28.555c0 0.171 0.053 0.331 0.16 0.491s0.277 0.277 0.491 0.341c0.149 0.032 0.235 0.053 0.267 0.053 0.096 0 0.224-0.032 0.405-0.107 0.224-0.096 0.373-0.288 0.448-0.555l0.299-1.12c0.064-0.235 0.043-0.459-0.085-0.672s-0.309-0.352-0.565-0.427c-0.235-0.064-0.459-0.043-0.672 0.085s-0.363 0.309-0.437 0.565l-0.288 1.067c-0.011 0.181-0.021 0.277-0.021 0.277zM15.072 23.467c0 0.149 0.053 0.309 0.16 0.469s0.267 0.277 0.48 0.352c0.235 0.075 0.469 0.064 0.683-0.053s0.352-0.299 0.427-0.555l0.32-1.109c0.064-0.235 0.032-0.459-0.085-0.672-0.128-0.213-0.32-0.363-0.565-0.437-0.245-0.064-0.469-0.043-0.693 0.085s-0.363 0.309-0.437 0.555l-0.256 1.077c-0.021 0.181-0.032 0.277-0.032 0.288zM18.080 25.227c0 0.181 0.053 0.363 0.171 0.544s0.288 0.299 0.501 0.373c0.021 0 0.064 0.011 0.128 0.021 0.053 0.011 0.096 0.021 0.128 0.021 0.139 0 0.277-0.021 0.405-0.085 0.203-0.075 0.352-0.277 0.437-0.608l0.267-1.077c0.075-0.245 0.053-0.48-0.064-0.704s-0.299-0.373-0.533-0.448c-0.267-0.064-0.512-0.032-0.725 0.085-0.213 0.128-0.352 0.32-0.395 0.565l-0.288 1.099c-0.021 0.064-0.032 0.139-0.032 0.213zM19.531 20.117c-0.011 0.171 0.043 0.331 0.16 0.501s0.288 0.299 0.523 0.405c0.085 0.043 0.171 0.064 0.277 0.064 0.117 0 0.235-0.032 0.363-0.085 0.224-0.107 0.373-0.309 0.469-0.608l0.309-1.099c0.021-0.139 0.032-0.213 0.032-0.235 0-0.181-0.053-0.352-0.171-0.523s-0.288-0.288-0.523-0.352c-0.021 0-0.064-0.011-0.117-0.021-0.064-0.032-0.107-0.032-0.139-0.032-0.181 0-0.352 0.053-0.523 0.16s-0.288 0.277-0.352 0.512l-0.288 1.077c-0.011 0.085-0.021 0.16-0.021 0.235z"/>
</svg>
